HIERARCHY
ROOT Hips
{
	OFFSET 0.000000 0.000000 0.000000 
	CHANNELS 6 Xposition Yposition Zposition Zrotation Yrotation Xrotation
	JOINT LeftUpLeg
	{
		OFFSET 1.363060 -1.794630 0.839290 
		CHANNELS 3 Zrotation Yrotation Xrotation
		JOINT LeftLeg
		{
			OFFSET 2.448110 -6.726130 0.000000 
			CHANNELS 3 Zrotation Yrotation Xrotation
			JOINT LeftFoot
			{
				OFFSET 2.562200 -7.039590 0.000000 
				CHANNELS 3 Zrotation Yrotation Xrotation
				JOINT LeftToeBase
				{
					OFFSET 0.157640 -0.433110 2.322550 
					CHANNELS 3 Zrotation Yrotation Xrotation
					End Site
					{
						OFFSET 0.000000 0.000000 0.000000 
					}
				}
			}
		}
	}
	JOINT RightUpLeg
	{
		OFFSET -1.305520 -1.794630 0.839290 
		CHANNELS 3 Zrotation Yrotation Xrotation
		JOINT RightLeg
		{
			OFFSET -2.542530 -6.985550 0.000000 
			CHANNELS 3 Zrotation Yrotation Xrotation
			JOINT RightFoot
			{
				OFFSET -2.568260 -7.056230 0.000000 
				CHANNELS 3 Zrotation Yrotation Xrotation
				JOINT RightToeBase
				{
					OFFSET -0.164730 -0.452590 2.363150 
					CHANNELS 3 Zrotation Yrotation Xrotation
					End Site
					{
						OFFSET 0.000000 0.000000 0.000000 
					}
				}
			}
		}
	}
	JOINT Spine
	{
		OFFSET 0.028270 2.035590 -0.193380 
		CHANNELS 3 Zrotation Yrotation Xrotation
		JOINT Spine1
		{
			OFFSET 0.056720 2.048850 -0.042750 
			CHANNELS 3 Zrotation Yrotation Xrotation
			JOINT Neck1
			{
				OFFSET -0.054170 1.746240 0.172020 
				CHANNELS 3 Zrotation Yrotation Xrotation
				JOINT Head
				{
					OFFSET 0.104070 1.761360 -0.123970 
					CHANNELS 3 Zrotation Yrotation Xrotation
					End Site
					{
						OFFSET 0.000000 0.000000 0.000000 
					}
				}
			}
			JOINT LeftArm
			{
				OFFSET 3.362410 1.200890 -0.311210 
				CHANNELS 3 Zrotation Yrotation Xrotation
				JOINT LeftForeArm
				{
					OFFSET 4.983000 -0.000000 -0.000000 
					CHANNELS 3 Zrotation Yrotation Xrotation
					JOINT LeftHand
					{
						OFFSET 3.483560 -0.000000 -0.000000 
						CHANNELS 3 Zrotation Yrotation Xrotation
						JOINT LeftHandIndex1
						{
							OFFSET 0.715260 -0.000000 -0.000000 
							CHANNELS 3 Zrotation Yrotation Xrotation
							End Site
							{
								OFFSET 0.000000 0.000000 0.000000 
							}
						}
					}
				}
			}
			JOINT RightArm
			{
				OFFSET -3.136600 1.374050 -0.404650 
				CHANNELS 3 Zrotation Yrotation Xrotation
				JOINT RightForeArm
				{
					OFFSET -5.241900 -0.000000 -0.000000 
					CHANNELS 3 Zrotation Yrotation Xrotation
					JOINT RightHand
					{
						OFFSET -3.444170 -0.000000 -0.000000 
						CHANNELS 3 Zrotation Yrotation Xrotation
						JOINT RightHandIndex1
						{
							OFFSET -0.622530 -0.000000 -0.000000 
							CHANNELS 3 Zrotation Yrotation Xrotation
							End Site
							{
								OFFSET 0.000000 0.000000 0.000000 
							}
						}
					}
				}
			}
		}
	}
}
MOTION
Frames: 10
Frame Time: 0.041667
3.622112 17.923737 -1.651642 -46.698386 77.821929 -53.774106 -1.943282 -8.128090 1.532158 -0.493591 8.663229 25.171631 5.472593 -7.230132 -0.630036 0.166400 -2.628100 -7.245100 20.471713 11.586064 3.021002 3.310461 -5.342410 16.533010 -3.740133 11.928956 8.000610 -0.079300 1.816500 -4.998900 -0.626397 2.170845 3.294585 -0.026047 1.394558 0.071509 14.123839 1.580498 10.681065 1.106300 1.669500 2.405100 -71.705001 23.420410 25.579648 39.450769 -46.367057 -22.036986 0.668434 -1.757396 -3.130295 -7.125000 0.000000 0.000000 78.486081 -17.493941 26.782883 -27.324013 35.135478 -9.434530 0.652180 0.732999 7.914927 7.125000 0.000000 0.000000 
3.602843 17.930950 -1.666790 -47.116842 77.817630 -54.040342 -1.860141 -8.109806 1.252604 -0.482645 8.689266 25.229914 5.528288 -7.340870 -0.489682 0.157500 -2.557100 -7.047900 20.430328 11.692968 2.900491 3.342186 -5.284772 16.364355 -3.716817 11.788204 8.195310 -0.078300 1.804600 -4.966000 -0.629695 2.231700 3.356245 -0.134244 1.435060 0.042915 13.956129 1.557854 10.381832 1.048200 1.619100 2.316900 -71.816290 23.440069 25.543895 38.776645 -46.011718 -21.480030 0.664117 -1.751851 -2.895959 -7.125000 0.000000 0.000000 78.472603 -17.408810 27.055152 -27.499820 35.282132 -9.525356 0.655328 0.724198 7.884991 7.125000 0.000000 0.000000 
3.583367 17.938370 -1.682041 -47.584593 77.809560 -54.350310 -1.767831 -8.090793 0.962963 -0.470376 8.717068 25.293457 5.584107 -7.451707 -0.337201 0.147500 -2.474700 -6.819500 20.394510 11.792431 2.780636 3.375745 -5.220386 16.179126 -3.692823 11.646921 8.398955 -0.077300 1.793600 -4.935600 -0.626761 2.294217 3.424372 -0.247708 1.476878 0.019575 13.785098 1.531827 10.079724 0.990100 1.567000 2.229200 -71.927579 23.463098 25.480722 38.093566 -45.643264 -20.920760 0.659592 -1.745140 -2.649616 -7.125000 0.000000 0.000000 78.433092 -17.316744 27.366834 -27.704115 35.451327 -9.631140 0.658454 0.711782 7.817499 7.125000 0.000000 0.000000 
3.563891 17.945892 -1.697292 -48.087815 77.799905 -54.691064 -1.669799 -8.070190 0.666118 -0.456730 8.746364 25.361000 5.640179 -7.561608 -0.183862 0.137900 -2.393400 -6.594200 20.361362 11.886331 2.662613 3.410586 -5.150437 15.980194 -3.668566 11.504969 8.605954 -0.076600 1.785000 -4.911900 -0.616661 2.356881 3.499108 -0.362157 1.519084 0.002612 13.615487 1.502761 9.782340 0.934300 1.514200 2.144800 -72.041613 23.493001 25.391941 37.413098 -45.267661 -20.368459 0.654787 -1.737356 -2.392845 -7.125000 0.000000 0.000000 78.362223 -17.216122 27.720991 -27.934453 35.640916 -9.750688 0.661133 0.695851 7.722646 7.125000 0.000000 0.000000 
3.544312 17.953415 -1.712749 -48.625487 77.788088 -55.059095 -1.565338 -8.047553 0.360696 -0.441928 8.776524 25.430127 5.698043 -7.673793 -0.033519 0.129500 -2.319700 -6.390200 20.330336 11.971026 2.540866 3.446236 -5.076436 15.771414 -3.644828 11.366152 8.816568 -0.076100 1.780100 -4.898400 -0.600799 2.419199 3.576938 -0.480630 1.561622 -0.012059 13.449792 1.470197 9.490929 0.881200 1.460800 2.063400 -72.155270 23.539658 25.283487 36.754122 -44.896487 -19.838789 0.649923 -1.728885 -2.119806 -7.125000 0.000000 0.000000 78.262173 -17.106000 28.113020 -28.188976 35.849181 -9.883919 0.663624 0.677448 7.609211 7.125000 0.000000 0.000000 
3.524939 17.961143 -1.728309 -49.166717 77.782275 -55.423274 -1.464630 -8.022954 0.050005 -0.427407 8.806534 25.497673 5.757456 -7.788355 0.108049 0.122900 -2.259500 -6.223500 20.289310 12.048217 2.411450 3.481868 -5.000654 15.558045 -3.622873 11.231666 9.026005 -0.076100 1.779500 -4.896800 -0.581474 2.480494 3.656756 -0.600638 1.604094 -0.024922 13.292451 1.434953 9.209082 0.832900 1.407600 1.986900 -72.265655 23.607977 25.165388 36.125388 -44.535752 -19.337958 0.644795 -1.719663 -1.841504 -7.125000 0.000000 0.000000 78.132383 -16.988240 28.540214 -28.468285 36.076335 -10.031355 0.665220 0.656999 7.493572 7.125000 0.000000 0.000000 
3.505566 17.968975 -1.743972 -49.698095 77.789234 -55.769558 -1.373695 -7.996335 -0.264989 -0.414565 8.835153 25.559520 5.818551 -7.906732 0.241295 0.118000 -2.214800 -6.099800 20.231026 12.120192 2.271732 3.516519 -4.925317 15.345710 -3.602476 11.097499 9.229028 -0.076800 1.787600 -4.919000 -0.561796 2.541356 3.735605 -0.722601 1.646936 -0.039644 13.135847 1.394177 8.933310 0.785200 1.352700 1.912200 -72.365324 23.702851 25.049936 35.535656 -44.192249 -18.872399 0.639481 -1.709951 -1.558970 -7.125000 0.000000 0.000000 77.981140 -16.868202 28.989630 -28.775165 36.324656 -10.196073 0.666279 0.635325 7.374152 7.125000 0.000000 0.000000 
3.486502 17.977219 -1.759533 -50.197782 77.814804 -56.074645 -1.299234 -7.968147 -0.582230 -0.405027 8.860352 25.610273 5.878717 -8.023179 0.366343 0.115200 -2.188000 -6.025500 20.147172 12.193327 2.116994 3.549605 -4.853683 15.141462 -3.583901 10.961590 9.426196 -0.077800 1.799100 -4.950600 -0.542289 2.599948 3.812180 -0.840739 1.688867 -0.056020 12.984502 1.351526 8.665196 0.740700 1.298000 1.840200 -72.457287 23.826903 24.938662 34.993541 -43.872599 -18.448116 0.634007 -1.700399 -1.270303 -7.125000 0.000000 0.000000 77.805121 -16.745448 29.459376 -29.109918 36.594059 -10.378870 0.666638 0.613521 7.252252 7.125000 0.000000 0.000000 
3.467851 17.985772 -1.774990 -50.664039 77.864211 -56.334274 -1.243729 -7.938982 -0.902496 -0.400452 8.880520 25.644913 5.937717 -8.138627 0.489261 0.113900 -2.176300 -5.993200 20.033994 12.273286 1.944205 3.580271 -4.788171 14.950932 -3.566524 10.818505 9.613206 -0.079000 1.813200 -4.989600 -0.522483 2.658174 3.886784 -0.949888 1.730669 -0.069882 12.838388 1.306446 8.398265 0.699800 1.242500 1.768400 -72.535649 23.978106 24.845770 34.505446 -43.582742 -18.069948 0.628699 -1.691602 -0.982440 -7.125000 0.000000 0.000000 77.608605 -16.621184 29.935603 -29.472073 36.883574 -10.580263 0.666261 0.591594 7.118357 7.125000 0.000000 0.000000 
3.449714 17.994943 -1.790344 -51.059620 77.942815 -56.511006 -1.216699 -7.909037 -1.222582 -0.402290 8.894481 25.660391 5.992607 -8.246961 0.610142 0.114000 -2.177400 -5.996100 19.880278 12.363554 1.749707 3.608297 -4.730658 14.778665 -3.550932 10.667937 9.792830 -0.080500 1.830400 -5.037200 -0.504662 2.715410 3.957332 -1.048615 1.771780 -0.084308 12.687572 1.261073 8.127892 0.658300 1.186600 1.694200 -72.601830 24.156469 24.773571 34.071451 -43.324055 -17.736570 0.623456 -1.683484 -0.718156 -7.125000 0.000000 0.000000 77.395244 -16.497541 30.407740 -29.860197 37.191481 -10.800447 0.665109 0.570657 6.974970 7.125000 0.000000 0.000000 
